<?xml version="1.0" standalone="no"?>
<!DOCTYPE svg PUBLIC "-//W3C//DTD SVG 20010904//EN"
 "http://www.w3.org/TR/2001/REC-SVG-20010904/DTD/svg10.dtd">
<svg version="1.0" xmlns="http://www.w3.org/2000/svg"
 width="240.000000pt" height="240.000000pt" viewBox="0 0 240.000000 240.000000"
 preserveAspectRatio="xMidYMid meet">
<metadata>
Created by potrace 1.14, written by Peter Selinger 2001-2017
</metadata>
<g transform="translate(0.000000,240.000000) scale(0.100000,-0.100000)"
fill="#000000" stroke="none">
<path d="M1021 1980 c-88 -42 -158 -93 -207 -150 -38 -44 -94 -126 -94 -137 0
-5 -16 -25 -36 -44 -49 -46 -70 -97 -85 -202 -12 -79 -11 -92 3 -117 16 -27
15 -32 -24 -137 -22 -59 -47 -128 -56 -153 -12 -35 -16 -87 -16 -240 0 -173 2
-204 22 -275 13 -44 32 -94 43 -112 l21 -33 113 0 c62 0 120 3 129 6 10 4 16
18 16 37 l0 31 16 -24 c30 -45 45 -52 99 -44 28 3 55 10 61 15 8 6 14 4 18 -6
8 -23 288 -22 307 1 11 14 13 14 21 0 8 -14 40 -16 223 -16 l214 1 30 34 c17
19 35 54 41 77 6 24 16 57 22 73 7 18 13 132 16 277 4 244 4 247 -23 340 -21
72 -28 116 -29 198 -1 128 -23 203 -72 252 -19 18 -49 60 -67 93 -17 33 -60
90 -95 126 -50 54 -82 77 -160 116 l-96 48 -136 2 -135 2 -84 -39z m416 -510
c69 -9 75 -12 152 -76 45 -37 81 -70 81 -74 0 -4 -35 -5 -77 -3 -43 3 -103 0
-133 -5 -50 -9 -43 -10 70 -11 166 -1 170 -4 170 -114 0 -45 -4 -88 -9 -96
-18 -28 -227 -42 -303 -21 -45 13 -58 34 -58 92 1 37 2 41 14 26 12 -16 14
-16 34 5 l22 21 1 -34 c1 -19 3 -27 6 -17 4 16 7 15 25 -8 11 -14 30 -25 44
-25 27 0 64 32 64 56 0 8 5 12 10 9 15 -9 12 18 -4 41 -14 19 -12 21 32 34 39
11 43 14 23 18 -30 5 -121 -12 -203 -39 -34 -10 -63 -17 -65 -15 -13 13 12 47
38 53 16 3 29 10 29 15 0 18 -54 -2 -75 -27 -18 -20 -29 -23 -92 -24 -60 0
-74 3 -86 19 -19 27 -98 56 -82 30 3 -5 15 -10 25 -10 22 0 50 -36 50 -65 0
-12 -3 -16 -8 -9 -12 19 -172 65 -237 70 l-60 4 55 -20 c30 -10 50 -19 44 -19
-14 -1 -34 -45 -34 -73 0 -27 12 -16 26 25 12 34 37 43 42 15 2 -13 -3 -18
-17 -18 -25 0 -28 -31 -5 -54 27 -28 94 -13 94 20 0 10 6 14 15 10 11 -4 15 1
15 17 1 21 2 20 25 -8 19 -23 25 -26 25 -12 0 9 4 17 9 17 16 0 0 -84 -20
-104 -15 -16 -36 -21 -107 -24 -82 -4 -217 10 -230 23 -13 13 -7 184 6 197 9
9 56 15 145 18 l132 5 -78 9 c-43 5 -100 6 -127 4 -56 -6 -56 -8 8 74 46 60
67 69 182 81 74 8 328 6 397 -3z m-127 -244 c0 -7 -10 -21 -22 -29 -23 -16
-23 -16 -2 -16 17 -1 22 -9 27 -42 10 -78 25 -84 206 -84 142 0 161 2 180 19
12 11 21 31 21 47 0 15 5 31 11 35 9 5 10 -7 5 -42 -11 -80 -35 -151 -52 -158
-9 -3 -97 -6 -195 -6 -142 0 -179 3 -173 13 6 9 4 9 -8 -1 -17 -14 -27 -14
-348 -16 l-184 -1 -18 46 c-21 58 -42 205 -31 222 5 7 10 -16 14 -56 8 -100
11 -101 185 -105 192 -5 212 3 228 91 5 29 12 37 29 38 l22 0 -22 9 c-13 6
-23 18 -23 30 0 18 6 20 75 20 57 0 75 -3 75 -14z m150 -12 c0 -14 -21 -19
-33 -7 -9 9 13 34 24 27 5 -3 9 -12 9 -20z m-754 -271 c-3 -3 -13 -3 -22 1
-13 5 -15 14 -10 44 17 98 19 100 29 29 5 -38 6 -71 3 -74z m1064 27 c0 -16
-4 -30 -8 -30 -5 0 -7 14 -4 30 2 17 6 30 8 30 2 0 4 -13 4 -30z m-680 -57 c0
-5 14 -16 30 -25 34 -19 40 -48 10 -48 -11 0 -20 5 -20 10 0 6 -4 10 -10 10
-5 0 -10 -11 -10 -24 0 -17 7 -26 25 -30 57 -14 54 -80 -5 -110 -29 -14 -35
-14 -64 1 -30 15 -46 30 -46 46 0 11 38 9 45 -3 11 -18 25 -10 25 14 0 15 -7
27 -19 31 -32 10 -54 42 -47 69 7 29 86 83 86 59z m431 -13 c29 -16 26 -77 -5
-91 -37 -17 -66 3 -66 46 0 46 31 66 71 45z m115 -5 c-12 -33 -139 -195 -152
-195 -8 0 -14 2 -14 5 0 16 144 205 157 205 9 0 13 -6 9 -15z m-728 -11 c27
-19 28 -41 2 -69 l-20 -22 20 -18 c20 -18 20 -18 20 8 0 18 5 27 15 27 21 0
28 -21 16 -53 -8 -19 -6 -28 5 -37 7 -7 14 -15 14 -19 0 -13 -147 -10 -165 3
-22 16 -22 61 0 85 13 15 14 24 5 40 -26 50 38 91 88 55z m327 -54 c0 -52 -3
-65 -17 -68 -13 -3 -17 8 -20 60 -5 72 -2 80 20 76 14 -3 17 -16 17 -68z m115
45 c0 -31 27 -34 32 -3 2 13 11 24 22 26 16 3 18 0 12 -22 -5 -19 -3 -26 9
-26 22 0 18 -21 -5 -27 -20 -5 -29 -43 -10 -43 6 0 10 -7 10 -15 0 -8 -6 -15
-14 -15 -8 0 -17 -11 -20 -25 -4 -14 -14 -25 -22 -25 -12 0 -15 6 -10 26 6 21
4 25 -11 22 -10 -2 -19 -13 -21 -26 -2 -12 -10 -22 -19 -22 -11 0 -14 6 -9 25
5 18 2 25 -9 25 -8 0 -15 7 -15 15 0 8 6 15 14 15 21 0 28 28 9 38 -18 11 -9
32 13 32 8 0 14 10 14 25 0 16 6 25 15 25 9 0 15 -9 15 -25z m304 -97 c26 -43
-31 -99 -70 -68 -17 15 -18 62 -2 78 17 17 58 11 72 -10z m-416 -65 c-2 -10
-10 -18 -18 -18 -8 0 -16 8 -18 18 -2 12 3 17 18 17 15 0 20 -5 18 -17z"/>
<path d="M849 1203 c-13 -16 -12 -17 4 -4 16 13 21 21 13 21 -2 0 -10 -8 -17
-17z"/>
<path d="M1610 1202 c6 -13 14 -21 18 -18 3 4 -2 14 -12 24 -18 16 -18 16 -6
-6z"/>
<path d="M1046 852 c-2 -4 -1 -14 5 -22 7 -12 9 -10 9 8 0 23 -5 28 -14 14z"/>
<path d="M1090 743 c0 -25 1 -26 16 -11 9 9 13 21 10 27 -13 20 -26 11 -26
-16z"/>
<path d="M1484 866 c-4 -10 -2 -22 4 -28 8 -8 13 -7 18 6 4 10 2 22 -4 28 -8
8 -13 7 -18 -6z"/>
<path d="M853 854 c-8 -21 13 -42 28 -27 13 13 5 43 -11 43 -6 0 -13 -7 -17
-16z"/>
<path d="M840 765 c-19 -23 -5 -45 30 -45 36 0 38 9 7 39 -21 19 -25 20 -37 6z"/>
<path d="M1337 800 c-4 -15 0 -20 14 -20 12 0 19 7 19 20 0 11 -6 20 -14 20
-7 0 -16 -9 -19 -20z"/>
<path d="M1604 766 c-8 -21 3 -49 16 -41 5 3 10 15 10 25 0 25 -18 36 -26 16z"/>
</g>
</svg>
