<svg width="24" height="24" viewBox="0 0 24 24" fill="none" xmlns="http://www.w3.org/2000/svg">
<path fill-rule="evenodd" clip-rule="evenodd" d="M0.947777 21.6191C0.671534 21.8897 0.666856 22.3328 0.937328 22.609C1.2078 22.8851 1.651 22.8897 1.92724 22.6191L11.8544 12.8965L21.8577 23.0539C22.129 23.3293 22.5722 23.3326 22.8477 23.0613C23.1232 22.79 23.1267 22.3468 22.8554 22.0714L12.8547 11.9167L23.0443 1.93696C23.3206 1.66641 23.3253 1.22323 23.0548 0.947086C22.7843 0.670943 22.3411 0.666414 22.0649 0.936965L11.8725 10.9194L2.11604 1.01263C1.84482 0.737227 1.4016 0.733906 1.1261 1.00521C0.850598 1.27652 0.847129 1.71971 1.11835 1.99511L10.8722 11.8991L0.947777 21.6191Z" fill="#fff"/>
</svg>
